# xmcd
#
# Track frame offsets: 
#        150
#        32146
#        56028
#        81337
#
# Disc length: 1803 seconds
#
# Revision: 1
# Processed by: cddbd v1.5.1PL0 Copyright (c) Steve Scherf et al.
# Submitted via: ExactAudioCopy v0.95a3
#
DISCID=2f070904
DTITLE=!!! and Out Hud - "Lab Remix Series Vol. 2" Split EP
DYEAR=2004
DGENRE=Post Punk
TTITLE0=Out Hud - JGNE
TTITLE1=Out Hud - JGNDG
TTITLE2=Out Hud - JGNXTC
TTITLE3=!!! - Instinct
EXTD=
EXTT0=
EXTT1=
EXTT2=
EXTT3=
PLAYORDER=
